<?xml version="1.0" encoding="iso-8859-1"?>
<!-- Generator: Adobe Illustrator 19.0.0, SVG Export Plug-In . SVG Version: 6.00 Build 0)  -->
<svg version="1.1" id="Layer_1" xmlns="http://www.w3.org/2000/svg" xmlns:xlink="http://www.w3.org/1999/xlink" x="0px" y="0px"
	 viewBox="0 0 512 512" style="enable-background:new 0 0 512 512;" xml:space="preserve">
<g>
	<g>
		<path d="M503.83,21.787H8.17c-4.513,0-8.17,3.657-8.17,8.17v452.085c0,4.513,3.657,8.17,8.17,8.17h495.66
			c4.513,0,8.17-3.657,8.17-8.17V29.957C512,25.444,508.343,21.787,503.83,21.787z M495.66,473.872H16.34V103.489H495.66V473.872z
			 M495.66,87.149H16.34V38.128H495.66V87.149z"/>
	</g>
</g>
<g>
	<g>
		<path d="M471.149,392.17c4.513,0,8.17-3.657,8.17-8.17V128c0-4.513-3.657-8.17-8.17-8.17H40.851c-4.513,0-8.17,3.657-8.17,8.17
			v321.362c0,4.513,3.657,8.17,8.17,8.17h430.298c4.513,0,8.17-3.657,8.17-8.17v-32.681c0-4.513-3.657-8.17-8.17-8.17
			s-8.17,3.657-8.17,8.17v24.511H49.021V136.17h413.957V384C462.979,388.513,466.636,392.17,471.149,392.17z"/>
	</g>
</g>
<g>
	<g>
		<path d="M141.617,166.128c-13.515,0-24.511,10.996-24.511,24.511v21.787c0,13.515,10.996,24.511,24.511,24.511
			c13.515,0,24.511-10.996,24.511-24.511v-21.787C166.128,177.124,155.132,166.128,141.617,166.128z M149.787,212.426
			c0,4.506-3.665,8.17-8.17,8.17c-4.506,0-8.17-3.665-8.17-8.17v-21.787c0-4.506,3.665-8.17,8.17-8.17c4.506,0,8.17,3.665,8.17,8.17
			V212.426z"/>
	</g>
</g>
<g>
	<g>
		<path d="M190.638,166.128c-4.513,0-8.17,3.657-8.17,8.17v54.468c0,4.513,3.657,8.17,8.17,8.17s8.17-3.657,8.17-8.17v-54.468
			C198.809,169.785,195.152,166.128,190.638,166.128z"/>
	</g>
</g>
<g>
	<g>
		<path d="M239.66,166.128c-13.515,0-24.511,10.996-24.511,24.511v21.787c0,13.515,10.996,24.511,24.511,24.511
			c13.515,0,24.511-10.996,24.511-24.511v-21.787C264.17,177.124,253.174,166.128,239.66,166.128z M247.83,212.426
			c0,4.506-3.665,8.17-8.17,8.17c-4.506,0-8.17-3.665-8.17-8.17v-21.787c0-4.506,3.665-8.17,8.17-8.17c4.506,0,8.17,3.665,8.17,8.17
			V212.426z"/>
	</g>
</g>
<g>
	<g>
		<path d="M288.681,166.128c-4.513,0-8.17,3.657-8.17,8.17v54.468c0,4.513,3.657,8.17,8.17,8.17s8.17-3.657,8.17-8.17v-54.468
			C296.851,169.785,293.194,166.128,288.681,166.128z"/>
	</g>
</g>
<g>
	<g>
		<path d="M321.362,166.128c-4.513,0-8.17,3.657-8.17,8.17v54.468c0,4.513,3.657,8.17,8.17,8.17s8.17-3.657,8.17-8.17v-54.468
			C329.532,169.785,325.875,166.128,321.362,166.128z"/>
	</g>
</g>
<g>
	<g>
		<path d="M370.383,166.128c-13.515,0-24.511,10.996-24.511,24.511v21.787c0,13.515,10.996,24.511,24.511,24.511
			c13.515,0,24.511-10.996,24.511-24.511v-21.787C394.894,177.124,383.898,166.128,370.383,166.128z M378.553,212.426
			c0,4.506-3.665,8.17-8.17,8.17c-4.506,0-8.17-3.665-8.17-8.17v-21.787c0-4.506,3.665-8.17,8.17-8.17c4.506,0,8.17,3.665,8.17,8.17
			V212.426z"/>
	</g>
</g>
<g>
	<g>
		<path d="M174.298,340.426c-13.515,0-24.511,10.996-24.511,24.511v21.787c0,13.515,10.996,24.511,24.511,24.511
			c13.515,0,24.511-10.996,24.511-24.511v-21.787C198.809,351.422,187.812,340.426,174.298,340.426z M182.468,386.723
			c0,4.506-3.665,8.17-8.17,8.17c-4.506,0-8.17-3.665-8.17-8.17v-21.787c0-4.506,3.665-8.17,8.17-8.17c4.506,0,8.17,3.665,8.17,8.17
			V386.723z"/>
	</g>
</g>
<g>
	<g>
		<path d="M125.277,340.426c-4.513,0-8.17,3.657-8.17,8.17v54.468c0,4.513,3.657,8.17,8.17,8.17s8.17-3.657,8.17-8.17v-54.468
			C133.447,344.082,129.79,340.426,125.277,340.426z"/>
	</g>
</g>
<g>
	<g>
		<path d="M239.66,340.426c-13.515,0-24.511,10.996-24.511,24.511v21.787c0,13.515,10.996,24.511,24.511,24.511
			c13.515,0,24.511-10.996,24.511-24.511v-21.787C264.17,351.422,253.174,340.426,239.66,340.426z M247.83,386.723
			c0,4.506-3.665,8.17-8.17,8.17c-4.506,0-8.17-3.665-8.17-8.17v-21.787c0-4.506,3.665-8.17,8.17-8.17c4.506,0,8.17,3.665,8.17,8.17
			V386.723z"/>
	</g>
</g>
<g>
	<g>
		<path d="M288.681,340.426c-4.513,0-8.17,3.657-8.17,8.17v54.468c0,4.513,3.657,8.17,8.17,8.17s8.17-3.657,8.17-8.17v-54.468
			C296.851,344.082,293.194,340.426,288.681,340.426z"/>
	</g>
</g>
<g>
	<g>
		<path d="M321.362,340.426c-4.513,0-8.17,3.657-8.17,8.17v54.468c0,4.513,3.657,8.17,8.17,8.17s8.17-3.657,8.17-8.17v-54.468
			C329.532,344.082,325.875,340.426,321.362,340.426z"/>
	</g>
</g>
<g>
	<g>
		<path d="M370.383,340.426c-13.515,0-24.511,10.996-24.511,24.511v21.787c0,13.515,10.996,24.511,24.511,24.511
			c13.515,0,24.511-10.996,24.511-24.511v-21.787C394.894,351.422,383.898,340.426,370.383,340.426z M378.553,386.723
			c0,4.506-3.665,8.17-8.17,8.17c-4.506,0-8.17-3.665-8.17-8.17v-21.787c0-4.506,3.665-8.17,8.17-8.17c4.506,0,8.17,3.665,8.17,8.17
			V386.723z"/>
	</g>
</g>
<g>
	<g>
		<path d="M370.383,253.277c-13.515,0-24.511,10.996-24.511,24.511v21.787c0,13.515,10.996,24.511,24.511,24.511
			c13.515,0,24.511-10.996,24.511-24.511v-21.787C394.894,264.273,383.898,253.277,370.383,253.277z M378.553,299.574
			c0,4.506-3.665,8.17-8.17,8.17c-4.506,0-8.17-3.665-8.17-8.17v-21.787c0-4.506,3.665-8.17,8.17-8.17c4.506,0,8.17,3.665,8.17,8.17
			V299.574z"/>
	</g>
</g>
<g>
	<g>
		<path d="M321.362,253.277c-4.513,0-8.17,3.657-8.17,8.17v54.468c0,4.513,3.657,8.17,8.17,8.17s8.17-3.657,8.17-8.17v-54.468
			C329.532,256.934,325.875,253.277,321.362,253.277z"/>
	</g>
</g>
<g>
	<g>
		<path d="M272.34,253.277c-13.515,0-24.511,10.996-24.511,24.511v21.787c0,13.515,10.996,24.511,24.511,24.511
			c13.515,0,24.511-10.996,24.511-24.511v-21.787C296.851,264.273,285.855,253.277,272.34,253.277z M280.511,299.574
			c0,4.506-3.665,8.17-8.17,8.17c-4.506,0-8.17-3.665-8.17-8.17v-21.787c0-4.506,3.665-8.17,8.17-8.17c4.506,0,8.17,3.665,8.17,8.17
			V299.574z"/>
	</g>
</g>
<g>
	<g>
		<path d="M223.319,253.277c-4.513,0-8.17,3.657-8.17,8.17v54.468c0,4.513,3.657,8.17,8.17,8.17s8.17-3.657,8.17-8.17v-54.468
			C231.489,256.934,227.832,253.277,223.319,253.277z"/>
	</g>
</g>
<g>
	<g>
		<path d="M190.638,253.277c-4.513,0-8.17,3.657-8.17,8.17v54.468c0,4.513,3.657,8.17,8.17,8.17s8.17-3.657,8.17-8.17v-54.468
			C198.809,256.934,195.152,253.277,190.638,253.277z"/>
	</g>
</g>
<g>
	<g>
		<path d="M141.617,253.277c-13.515,0-24.511,10.996-24.511,24.511v21.787c0,13.515,10.996,24.511,24.511,24.511
			c13.515,0,24.511-10.996,24.511-24.511v-21.787C166.128,264.273,155.132,253.277,141.617,253.277z M149.787,299.574
			c0,4.506-3.665,8.17-8.17,8.17c-4.506,0-8.17-3.665-8.17-8.17v-21.787c0-4.506,3.665-8.17,8.17-8.17c4.506,0,8.17,3.665,8.17,8.17
			V299.574z"/>
	</g>
</g>
<g>
	<g>
		<circle cx="430.298" cy="62.638" r="8.17"/>
	</g>
</g>
<g>
	<g>
		<circle cx="397.617" cy="62.638" r="8.17"/>
	</g>
</g>
<g>
	<g>
		<circle cx="462.979" cy="62.638" r="8.17"/>
	</g>
</g>
<g>
</g>
<g>
</g>
<g>
</g>
<g>
</g>
<g>
</g>
<g>
</g>
<g>
</g>
<g>
</g>
<g>
</g>
<g>
</g>
<g>
</g>
<g>
</g>
<g>
</g>
<g>
</g>
<g>
</g>
</svg>
